<svg width="148" height="47" viewBox="0 0 148 47" fill="none" xmlns="http://www.w3.org/2000/svg">
<path d="M70.969 22.9218C71.6369 23.1333 72.1601 23.4895 72.5386 23.9905C72.9171 24.4803 73.1064 25.087 73.1064 25.8106C73.1064 26.8348 72.7056 27.6252 71.9041 28.1818C71.1137 28.7273 69.9559 29 68.4308 29H62.386V17.3111H68.0968C69.5218 17.3111 70.6127 17.5838 71.3697 18.1293C72.1379 18.6748 72.5219 19.4151 72.5219 20.3502C72.5219 20.9179 72.3828 21.4245 72.1045 21.8698C71.8373 22.315 71.4588 22.6657 70.969 22.9218ZM65.0744 19.3483V22.1035H67.7629C68.4308 22.1035 68.9373 21.9866 69.2824 21.7529C69.6275 21.5191 69.8001 21.174 69.8001 20.7176C69.8001 20.2611 69.6275 19.9216 69.2824 19.699C68.9373 19.4652 68.4308 19.3483 67.7629 19.3483H65.0744ZM68.2304 26.9628C68.9429 26.9628 69.4773 26.8459 69.8335 26.6121C70.2009 26.3783 70.3845 26.0165 70.3845 25.5267C70.3845 24.5582 69.6665 24.074 68.2304 24.074H65.0744V26.9628H68.2304ZM80.4172 29.2004C78.7474 29.2004 77.4449 28.7384 76.5098 27.8144C75.5858 26.8904 75.1238 25.5712 75.1238 23.8569V17.3111H77.829V23.7567C77.829 25.8496 78.6973 26.896 80.4339 26.896C81.28 26.896 81.9257 26.6455 82.3709 26.1446C82.8162 25.6325 83.0389 24.8365 83.0389 23.7567V17.3111H85.7106V23.8569C85.7106 25.5712 85.2431 26.8904 84.308 27.8144C83.384 28.7384 82.0871 29.2004 80.4172 29.2004ZM90.679 19.5153H86.9385V17.3111H97.1246V19.5153H93.3841V29H90.679V19.5153ZM109.37 17.3111V29H107.149L101.321 21.9032V29H98.6497V17.3111H100.887L106.698 24.4079V17.3111H109.37ZM117.398 29.2004C115.729 29.2004 114.426 28.7384 113.491 27.8144C112.567 26.8904 112.105 25.5712 112.105 23.8569V17.3111H114.81V23.7567C114.81 25.8496 115.679 26.896 117.415 26.896C118.261 26.896 118.907 26.6455 119.352 26.1446C119.797 25.6325 120.02 24.8365 120.02 23.7567V17.3111H122.692V23.8569C122.692 25.5712 122.224 26.8904 121.289 27.8144C120.365 28.7384 119.068 29.2004 117.398 29.2004ZM127.66 19.5153H123.92V17.3111H134.106V19.5153H130.365V29H127.66V19.5153ZM144.681 26.8292V29H135.631V17.3111H144.464V19.4819H138.319V22.02H143.746V24.124H138.319V26.8292H144.681Z" fill="#F7931A"/>
<rect width="49" height="47" rx="12" fill="#F7931A"/>
<path d="M13 24C13 14.0589 21.0589 6 31 6H37V22C37 31.9411 28.9411 40 19 40H13V24Z" fill="#12161C"/>
<path d="M20 35C26.6274 35 32 29.6274 32 23H18V35H20Z" fill="#F7931A"/>
<path d="M30 12C25.5817 12 22 15.5817 22 20H32V12H30Z" fill="#F7931A"/>
</svg>
