<svg width="80" height="80" viewBox="0 0 80 80" fill="none" xmlns="http://www.w3.org/2000/svg">
<path d="M66.6668 33.3333C66.6668 40.6971 63.4697 47.3638 58.644 52.1895L55.8335 55L24.1668 55L21.3563 52.1895C16.5306 47.3638 13.3335 40.6971 13.3335 33.3333C13.3335 18.6057 25.2726 6.66667 40.0002 6.66667C54.7278 6.66667 66.6668 18.6057 66.6668 33.3333Z" fill="#FCD535"/>
<path d="M40 40.143L31.1785 31.3215L28.8215 33.6786L38.3332 43.1903V54.9999H24.1665V68.3333L30.8332 74.9999H49.1665L55.8332 68.3333V54.9999H41.6665V43.1905L51.1785 33.6786L48.8215 31.3215L40 40.143Z" fill="#EAECEF"/>
<path d="M40.1785 39.8215L31.357 31L29 33.357L38.5117 42.8687V54.6784H41.8451V42.869L51.357 33.357L49 31L40.1785 39.8215Z" fill="white"/>
<rect x="27.5" y="58.3333" width="25" height="3.33333" fill="white"/>
<rect x="27.5" y="65" width="25" height="3.33333" fill="white"/>
<path d="M6.6665 59.1666L10.8332 63.3333L14.9998 59.1666L10.8332 54.9999L6.6665 59.1666Z" fill="#E6E8EA"/>
<path d="M66.6665 9.99992L69.9998 13.3333L73.3332 9.99992L69.9998 6.66659L66.6665 9.99992Z" fill="#E6E8EA"/>
<path d="M64.1665 55H66.6665V52.5H64.1665V55Z" fill="#E6E8EA"/>
</svg>
